Coordinates
version=1
nRows=10
nColumns=40
inDegrees=yes

Units are S.I. units (second, meters, Newtons, ...)
Angles are in degrees.

endheader
time	pelvis_tilt	pelvis_list	pelvis_rotation	pelvis_tx	pelvis_ty	pelvis_tz	hip_flexion_r	hip_adduction_r	hip_rotation_r	knee_angle_r	knee_angle_r_beta	ankle_angle_r	subtalar_angle_r	mtp_angle_r	hip_flexion_l	hip_adduction_l	hip_rotation_l	knee_angle_l	knee_angle_l_beta	ankle_angle_l	subtalar_angle_l	mtp_angle_l	lumbar_extension	lumbar_bending	lumbar_rotation	arm_flex_r	arm_add_r	arm_rot_r	elbow_flex_r	pro_sup_r	wrist_flex_r	wrist_dev_r	arm_flex_l	arm_add_l	arm_rot_l	elbow_flex_l	pro_sup_l	wrist_flex_l	wrist_dev_l
     25.57342857	     -3.07001139	     -6.74315428	      0.03122694	      1.05401952	      0.93685481	      0.42615709	     30.66498132	     -4.17631177	     -8.54298075	     39.59668051	     39.59668051	     -1.52778158	    -12.17612679	     -1.49461123	     14.97116073	     -8.25350105	     -9.02376062	     20.68503087	     20.68503087	     10.84996497	     -9.92346530	     -5.30963198	    -11.85455692	      1.73894873	      0.10622563	      3.12062327	    -14.00187001	     -2.42343955	     39.53178968	     46.42764333	      0.00000000	      0.00000000	     15.97283628	    -16.47176122	     -3.09644921	     34.97375542	     45.78328023	      0.00000000	      0.00000000
     25.58685714	     -3.16228151	     -6.61654630	     -0.30676366	      1.05335651	      0.93671467	      0.42585023	     30.33895929	     -4.13315997	     -9.15080938	     35.68480587	     35.68480587	     -1.82760526	    -10.81085894	     -1.18580834	     14.54594086	     -8.13696903	     -9.42226390	     20.48210390	     20.48210390	     11.03425350	     -9.85519932	     -5.41794930	    -11.94001762	      1.65692832	      0.31517149	      2.48953582	    -14.28081050	     -2.69980150	     38.26096924	     46.47640492	      0.00000000	      0.00000000	     16.44691535	    -16.47731324	     -3.10959709	     35.56928715	     45.80176215	      0.00000000	      0.00000000
     25.60028571	     -3.30724723	     -6.47251389	     -0.60967879	      1.05274838	      0.93642840	      0.42559853	     29.94442740	     -4.05966049	     -9.87328218	     31.69782009	     31.69782009	     -2.10910988	     -9.11988673	     -0.92907545	     14.19457697	     -8.00902689	     -9.83892678	     20.30189563	     20.30189563	     11.21781738	     -9.69573803	     -5.59615255	    -11.93343338	      1.57341906	      0.44708240	      2.05200743	    -14.48146533	     -3.05130590	     36.67942541	     46.54535574	      0.00000000	      0.00000000	     16.82589027	    -16.47468963	     -3.10640090	     36.12272899	     45.81570638	      0.00000000	      0.00000000
     25.61371429	     -3.45056894	     -6.22996782	     -0.90761787	      1.05229503	      0.93604293	      0.42543933	     29.48557846	     -4.07248667	    -10.75501077	     27.81300633	     27.81300633	     -2.32356628	     -6.82874714	     -0.95522159	     13.80235565	     -7.79416025	    -10.36587057	     20.07531583	     20.07531583	     11.41236832	     -9.36265963	     -5.89203494	    -11.88662536	      1.35066143	      0.54691413	      2.07208364	    -14.46959933	     -3.81357638	     33.99450988	     46.67915416	      0.00000000	      0.00000000	     17.10576043	    -16.49069317	     -3.08450504	     36.83593836	     45.83237368	      0.00000000	      0.00000000
     25.62714286	     -3.60661768	     -6.04076598	     -1.18671908	      1.05191051	      0.93560445	      0.42542268	     28.98213015	     -3.90580985	    -11.48495387	     24.07690002	     24.07690002	     -2.46408392	     -4.62318108	     -0.40416989	     13.45901932	     -7.61687054	    -10.73760422	     19.89947902	     19.89947902	     11.61951169	     -9.25869398	     -6.09794642	    -11.84156175	      1.21825547	      0.52970120	      1.89141839	    -14.53349706	     -4.36916280	     32.35846920	     46.76606574	      0.00000000	      0.00000000	     17.33358182	    -16.54557083	     -3.10489721	     37.35443964	     45.84919794	      0.00000000	      0.00000000
     25.64057143	     -3.81040001	     -5.82486411	     -1.41742136	      1.05168846	      0.93502043	      0.42547350	     28.53223804	     -3.72109721	    -12.11816775	     20.69729524	     20.69729524	     -2.49984880	     -2.51555545	      0.36359941	     13.15235036	     -7.39833505	    -11.03856201	     19.69641765	     19.69641765	     11.83436036	     -9.15060896	     -6.27787259	    -11.68795482	      1.08697678	      0.54176472	      1.49509553	    -14.71211540	     -4.69621072	     31.30143285	     46.82078972	      0.00000000	      0.00000000	     17.53996521	    -16.51707456	     -3.12246018	     37.75436820	     45.86100403	      0.00000000	      0.00000000
     25.65400000	     -3.97616619	     -5.56320050	     -1.64354774	      1.05163745	      0.93445313	      0.42563863	     28.09852996	     -3.59456703	    -12.73655792	     17.84841112	     17.84841112	     -2.39685400	     -0.23043379	      1.22784058	     12.77650521	     -7.13620827	    -11.38560115	     19.45504974	     19.45504974	     12.04784452	     -9.00318689	     -6.47002953	    -11.55646980	      0.87760139	      0.62768374	      1.13834700	    -14.81019223	     -4.99177557	     30.32985796	     46.87188354	      0.00000000	      0.00000000	     17.76642758	    -16.46747274	     -3.14176817	     38.15806914	     45.87284312	      0.00000000	      0.00000000
     25.66742857	     -4.06835425	     -5.23332903	     -1.82470695	      1.05175360	      0.93404957	      0.42573228	     27.88865588	     -3.70970925	    -13.63502497	     16.17194232	     16.17194232	     -0.84164215	      2.67925141	      5.43722241	     12.23449980	     -6.75850051	    -11.68568340	     19.03868743	     19.03868743	     12.06800931	     -8.91531895	     -7.01429435	    -11.47193311	      0.60553260	      0.38312466	      1.98867673	    -14.46487511	     -7.82481703	     26.89756756	     47.15743022	      0.00000000	      0.00000000	     17.54672272	    -16.53729426	     -3.29586641	     39.08847138	     45.93794966	      0.00000000	      0.00000000
     25.68085714	     -4.14020493	     -5.02325224	     -2.00816556	      1.05208742	      0.93358837	      0.42613853	     27.46830689	     -3.54798764	    -13.99375225	     14.53293049	     14.53293049	     -0.74424630	      4.18543436	      5.89547186	     11.76246749	     -6.54680906	    -11.91845139	     18.83900772	     18.83900772	     12.34426889	     -8.86237533	     -7.12381461	    -11.38924445	      0.48860576	      0.44953730	      1.49198952	    -14.61971882	     -8.08254716	     26.72168729	     47.16943697	      0.00000000	      0.00000000	     17.74307718	    -16.48982721	     -3.34293102	     39.30977651	     45.95271038	      0.00000000	      0.00000000
     25.69428571	     -4.28558849	     -4.81219242	     -2.13603507	      1.05245784	      0.93276778	      0.42665113	     27.53598429	     -3.45871009	    -13.89225974	     14.18732234	     14.18732234	     -0.44888598	      4.41574903	      5.88475255	     11.47454381	     -6.34409231	    -12.02475958	     18.82606097	     18.82606097	     12.70387465	     -8.95191302	     -7.25592581	    -11.18283758	      0.39673680	      0.23606267	      1.24158100	    -14.73585935	     -8.12515872	     26.63641228	     47.17341764	      0.00000000	      0.00000000	     17.83626764	    -16.47633839	     -3.34430299	     39.36588194	     45.95484839	      0.00000000	      0.00000000
